<?xml version="1.0" encoding="utf-8"?>
<!-- Generator: Adobe Illustrator 18.1.0, SVG Export Plug-In . SVG Version: 6.00 Build 0)  -->
<svg version="1.1" xmlns="http://www.w3.org/2000/svg" xmlns:xlink="http://www.w3.org/1999/xlink" x="0px" y="0px"
	 viewBox="0 0 115 34.3" enable-background="new 0 0 115 34.3" xml:space="preserve">
<g id="Layer_1">
	<g>
		<g>
			<polygon fill="#FFFFFF" points="31.2,18.4 39,18.4 39,16.5 28.8,16.5 28.8,24.2 41.2,24.2 41.2,22.2 31.2,22.2 			"/>
			<path fill="#FFFFFF" d="M107.3,13.8l-2.9-1c-1.1-0.4-1.6-0.8-1.6-1.6c0-0.9,0.7-1.5,2.1-1.5c1.8,0,2.9,0.7,3.8,1.6l1.3-1.5
				c-1.1-1.2-2.6-2.1-5.3-2.1c-2.4,0-4.4,1.3-4.4,3.7c0,2.1,1.4,3.1,3.2,3.7l2.8,1c3.1,1,4.3,2.4,4.3,4.6c0,2.8-1.9,4.7-6,4.7
				c-3.6,0-5.9-1.6-7.3-3.4l-1.8,1.4c1.4,1.8,4.2,4.1,9.2,4.1c5.8,0,8.4-2.9,8.4-7C113.2,17.4,111.7,15.3,107.3,13.8z"/>
			<g>
				<path fill="#FFFFFF" d="M11.5,5.1H3v22.1h8.5c6.4,0,11.2-4.2,11.2-11C22.7,9.3,17.9,5.1,11.5,5.1z M11.2,25H5.6V7.3h5.6
					c5.1,0,8.8,3.4,8.8,8.8C19.9,21.6,16.3,25,11.2,25z"/>
				<path fill="#FFFFFF" d="M11.2,8.2H6.4V24h4.8c4.6,0,7.9-3.1,7.9-7.9C19.1,11.3,15.8,8.2,11.2,8.2z M10.9,22.2h-2V10.1h2
					c3.6,0,5.8,2.4,5.8,6C16.6,19.8,14.4,22.2,10.9,22.2z"/>
				<polygon fill="#FFFFFF" points="27.8,7.1 40.8,7.1 40.8,5.1 25.3,5.1 25.3,27.2 41.2,27.2 41.2,25.2 27.8,25.2 				"/>
				<polygon fill="#FFFFFF" points="40.8,10.1 40.8,8 28.8,8 28.8,15.5 39,15.5 39,13.7 31.2,13.7 31.2,10.1 				"/>
				<path fill="#FFFFFF" d="M66.3,4.8L55.8,16.7L45.3,4.8c-0.1-0.2-0.3-0.2-0.3,0l-1.3,22.3h2.2L47.2,10l8.7,9.6l8.4-9.7l1.2,17.2
					h2.3L66.6,4.9C66.5,4.6,66.4,4.7,66.3,4.8z"/>
				<path fill="#FFFFFF" d="M55.9,21.2l-8-8.9L47,27.1l2.4,0.1l0.5-9.3l5.8,6.5c0.1,0.1,0.2,0.1,0.3,0l5.6-6.5l0.5,9.3l2.4-0.1
					l-0.9-14.9L55.9,21.2z"/>
				<path fill="#FFFFFF" d="M102.5,18.1l2.6,0.9c1.5,0.5,2.2,0.9,2.2,1.9c0,1.2-1,1.8-2.8,1.8c-2.2,0-3.5-1.1-4.6-2.4l-1.7,1.3
					c1.3,1.6,3.1,3.1,6.5,3.1c3.5,0,5.1-1.5,5.1-3.9c0-2-1.2-3-3.7-3.9l-2.7-0.9c-2.2-0.7-4-2-4-4.5c0-2.9,2.4-4.5,5.3-4.5
					c2.9,0,4.8,1,6.1,2.4l1.2-1.5c-1.5-1.6-3.5-3-7.5-3c-3.9,0-7.5,2.2-7.5,6.6C97.1,15.1,99.3,17,102.5,18.1z"/>
			</g>
		</g>
		<g>
			<g>
				<g>
					<g>
						<path fill="#FFFFFF" d="M90.9,22.7c0-1.1-0.4-2.1-0.8-3c-0.4-0.9-1.1-1.5-2.2-1.8c-0.2-0.1-0.6,0-0.7,0.1
							c-0.1,0.1-0.1,0.4-0.1,0.6c0.2,0.9,0.4,1.8,0.7,2.7c0,0.1,0.1,0.3,0.3,0.3c0.6,0.3,1.2,0.6,1.8,0.9c0.3,0.2,0.6,0.3,1,0.5
							C90.9,22.9,91,22.8,90.9,22.7z"/>
						<path fill="#FFFFFF" d="M76,21c0.2-0.8,0.4-1.6,0.6-2.4c0-0.2,0.1-0.5-0.1-0.6c-0.1-0.1-0.5-0.2-0.7-0.1
							c-1,0.2-1.8,0.8-2.2,1.7c-0.4,1-0.8,2-0.8,3.1c1-0.4,1.8-0.8,2.7-1.2C75.8,21.4,75.9,21.3,76,21z"/>
						<path fill="#FFFFFF" d="M73.9,25.1c2.1-1.3,4.9-2.1,8-2.1c3.1,0,6,0.8,8,2.1c-2.1-1.9-4.9-3.1-8-3.1
							C78.8,22,75.9,23.2,73.9,25.1z"/>
						<path fill="#FFFFFF" d="M75.8,27.2c1.6-1,3.7-1.6,6.1-1.6c2.4,0,4.5,0.6,6.1,1.6c-1.6-1.5-3.7-2.4-6.1-2.4
							C79.5,24.9,77.4,25.8,75.8,27.2z"/>
						<path fill="#FFFFFF" d="M77.2,29.3c1.2-0.8,2.8-1.2,4.7-1.2c1.8,0,3.5,0.5,4.7,1.2c-1.2-1.1-2.8-1.8-4.7-1.8
							C80.1,27.5,78.4,28.1,77.2,29.3z"/>
						<path fill="#FFFFFF" d="M84.1,20.5V18c0-1.2-1-2.1-2.2-2.1c-1.2,0-2.2,0.9-2.2,2.1v2.5c0.8-0.1,1.6-0.1,2.5-0.1
							C82.8,20.4,83.5,20.5,84.1,20.5z"/>
						<path fill="#FFFFFF" d="M93.6,14.5C92.3,7.9,87.6,3,81.9,3c-5.5,0-10.2,4.7-11.6,11c-0.3,1.3-0.4,2.6-0.4,4
							c0,2,0.3,3.9,0.9,5.7c0.6,1.8,0.9,2.1,1.6,3.1c-0.7-1.5-0.7-1.5-1.2-3.4c0.4-0.3,0.9-0.5,1.3-0.7c0-0.2,0-0.4,0-0.5
							c0-4.6,4.2-8.3,9.5-8.3c5.2,0,9.5,3.7,9.5,8.3c0,0.2,0,0.4,0,0.5c0.5,0.2,0.9,0.5,1.3,0.7c-0.5,1.8-0.6,1.9-1.2,3.4
							c0.8-1.1,1-1.5,1.6-3.1c0.6-1.7,0.9-3.6,0.9-5.6C93.9,16.8,93.8,15.6,93.6,14.5z M81.9,13.6C81.9,13.6,81.9,13.6,81.9,13.6
							L81.9,13.6C81.9,13.6,81.9,13.6,81.9,13.6C81.9,13.6,81.9,13.6,81.9,13.6L81.9,13.6C81.9,13.6,81.9,13.6,81.9,13.6
							c-3.1,0-4.5,1.3-4.5,0.8c0.4-0.6,2.2-2.1,4.4-2.1l0,0c0,0,0,0,0,0c0,0,0,0,0,0l0,0c2.2,0,4,1.5,4.4,2.1
							C86.3,14.9,85,13.6,81.9,13.6z M83.2,12c-0.4,0.1-0.9,0.1-1.3,0.1c-0.5,0-0.9,0-1.3-0.1c0-1.7,1.2-1.7,1.2-2V7.3l0.2-0.4
							l0.2,0.4V10C82.1,10.4,83.2,10.3,83.2,12z M81.9,5.3c-2.6,0-5,0.8-6.8,2.1c1.7-1.9,4.1-3.1,6.8-3.1c2.6,0,5,1.2,6.8,3.1
							C87,6.1,84.6,5.3,81.9,5.3z"/>
					</g>
				</g>
			</g>
		</g>
	</g>
</g>
<g id="popup">
</g>
<g id="Layer_5">
</g>
<g id="cursores">
</g>
<g id="Layer_6">
</g>
<g id="Layer_2">
</g>
</svg>
